# xmcd
# 
# Track frame offsets:
#     150
#     19386
#     37689
#     57799
#     76796
#     96082
#     111303
#     126232
#     145267
#     170057
#     193060
#     217722
#     237313
#     261884
# 
# Disc length: 3777
# 
# Revision: 1
# Processed by: cddbd v1.5.2PL0 Copyright (c) Steve Scherf et al.
# Submitted via: fre:ac v1.0.27
# 
DISCID=bd0ebf0e
DTITLE=Various Artist - 『らき☆すた』歌のベスト～アニメ放送10周年記念盤～ [CD1]
DYEAR=2017
DGENRE=Anime
TTITLE0=平野綾、加藤英美里、福原香織、遠藤綾 - もってけ!セーラーふく
TTITLE1=平野綾、加藤英美里、福原香織、遠藤綾 - かえして!ニーソックス
TTITLE2=平野綾、加藤英美里、福原香織、遠藤綾 - ハマってサボっておーまいがっ!
TTITLE3=平野綾、加藤英美里、福原香織、遠藤綾 - なんてったって☆伝説
TTITLE4=平野綾、加藤英美里、福原香織、遠藤綾 - な・り・あ・が・り☆
TTITLE5=平野綾、加藤英美里、福原香織、遠藤綾 - なんでだったっけアイドル？
TTITLE6=平野綾、加藤英美里、福原香織、遠藤綾 - 男子ムリムリ大改造
TTITLE7=今野宏美、白石稔 - 曖昧ネットだーりん
TTITLE8=今野宏美、白石稔 - こねらぶ☆みっしょん
TTITLE9=白石稔 - 俺の忘れ物
TTITLE10=白石稔 - かおりんのテーマ
TTITLE11=白石稔 - シカイダーの唄
TTITLE12=白石稔 - 恋のミノル伝説
TTITLE13=白石稔 - えみりんのテーマ
EXTD=
EXTT0=
EXTT1=
EXTT2=
EXTT3=
EXTT4=
EXTT5=
EXTT6=
EXTT7=
EXTT8=
EXTT9=
EXTT10=
EXTT11=
EXTT12=
EXTT13=
PLAYORDER=
